<?xml version="1.0" encoding="utf-8"?>
<!-- Generator: Adobe Illustrator 16.0.0, SVG Export Plug-In . SVG Version: 6.00 Build 0)  -->
<!DOCTYPE svg PUBLIC "-//W3C//DTD SVG 1.1//EN" "http://www.w3.org/Graphics/SVG/1.1/DTD/svg11.dtd">
<svg version="1.1" id="Layer_1" xmlns="http://www.w3.org/2000/svg" xmlns:xlink="http://www.w3.org/1999/xlink" x="0px" y="0px"
	 width="161.3px" height="49.5px" viewBox="0 0.35 161.3 49.5" enable-background="new 0 0.35 161.3 49.5" xml:space="preserve">
<g>
	<g>
		<g>
			<polygon fill="#FFF6C5" points="0.3,49.351 19.701,39.65 39.1,49.351 58.6,39.65 58.6,0.75 39.1,10.55 19.701,0.75 0.3,10.55 			
				"/>
		</g>
		<g>
			<polygon fill="#B5E655" points="19.701,37.25 2.4,45.851 2.4,11.85 19.701,3.25 39.1,12.95 56.4,4.25 56.4,38.351 39.1,46.95 			
				"/>
		</g>
		<g>
			<rect x="19.4" y="0.75" fill="#424142" width="0.5" height="38.9"/>
		</g>
		<g>
			<rect x="38.9" y="10.55" fill="#424142" width="0.5" height="38.9"/>
		</g>
		<g>
			<polygon fill="#ECF0F1" points="56.3,31.051 48.8,34.75 48.8,41.95 56.5,38.25 			"/>
		</g>
		<g>
			<g>
				<path fill="#424142" d="M2.9,21.25c-0.2,0-0.4,0-0.7,0l0.1-1.1c0.3,0,0.6,0,0.9,0l0.1,1.1C3.2,21.25,3,21.25,2.9,21.25z"/>
			</g>
			<g>
				<path fill="#424142" d="M30.5,35.551C30.1,35.45,29.701,35.45,29.3,35.25c-0.301-0.1-0.6-0.199-0.9-0.3l0.4-1
					c0.3,0.101,0.6,0.2,0.8,0.3c0.399,0.1,0.8,0.2,1.101,0.2L30.5,35.551z M32.3,35.551l-0.2-1.101
					c0.601-0.101,1.101-0.399,1.399-0.899l0.9,0.6C33.9,34.95,33.201,35.45,32.3,35.551z M26.8,34.25c-0.7-0.4-1.301-0.9-1.801-1.4
					L25.8,32.15c0.4,0.5,0.9,0.9,1.5,1.199L26.8,34.25z M35.201,32.65l-1-0.301c0.199-0.6,0.299-1.199,0.299-2L35.6,30.45
					C35.4,31.35,35.3,32.051,35.201,32.65z M24,31.45c-0.399-0.601-0.6-1.3-0.899-2.101l1-0.299c0.2,0.699,0.5,1.299,0.8,1.899
					L24,31.45z M35.6,28.85H34.5v-0.1c0-0.6,0-1.3,0-2H35.6C35.6,27.45,35.6,28.15,35.6,28.85L35.6,28.85z M22.701,27.75
					c-0.101-0.6-0.201-1.3-0.4-2.1l1.1-0.2c0.1,0.899,0.2,1.5,0.4,2.101L22.701,27.75z M34.4,25.05c0-0.7,0-1.4-0.1-2.2h1.1
					c0,0.7,0,1.4,0.1,2.1L34.4,25.05z M22.201,24.05c-0.101-0.7-0.201-1.4-0.301-2.1l1.1-0.2c0.101,0.7,0.201,1.5,0.301,2.1
					L22.201,24.05z M47.9,22.45c-0.199-0.7-0.4-1.3-0.699-1.9l1-0.5c0.299,0.6,0.6,1.4,0.799,2.1L47.9,22.45z M35.4,21.35l-1.1-0.1
					c0-0.8,0.1-1.6,0.3-2.2l1.101,0.2C35.6,19.85,35.5,20.55,35.4,21.35z M5.1,20.65l-0.5-1c0.6-0.3,1.1-0.7,1.7-1.2l0.7,0.8
					C6.4,19.85,5.8,20.35,5.1,20.65z M21.5,20.45c-0.199-0.7-0.5-1.3-0.799-1.8l0.899-0.6c0.399,0.6,0.7,1.3,0.899,2.1L21.5,20.45z
					 M46.4,19.25c-0.4-0.6-0.8-1.1-1.3-1.5l0.7-0.8c0.6,0.5,1.1,1,1.5,1.7L46.4,19.25z M8.2,18.35l-0.7-0.8c0.5-0.4,1.1-0.8,1.8-1.3
					l0.6,0.9C9.2,17.55,8.6,18.05,8.2,18.35z M36.1,17.85l-1-0.4c0.399-0.8,0.899-1.4,1.5-1.9l0.601,0.9
					C36.701,16.75,36.4,17.25,36.1,17.85z M19.8,17.55c-0.5-0.4-1-0.8-1.6-1l0.399-1c0.7,0.3,1.399,0.7,2,1.2L19.8,17.55z
					 M43.8,16.95c-0.6-0.3-1.2-0.5-1.9-0.7l0.301-1c0.799,0.2,1.5,0.5,2.1,0.8L43.8,16.95z M11.2,16.55l-0.4-1
					c0.7-0.3,1.401-0.5,2.2-0.6l0.201,1.1C12.5,16.05,11.9,16.25,11.2,16.55z M16.701,16.05c-0.601-0.1-1.201-0.2-1.9-0.2h-0.1v-1.1
					h0.1c0.699,0,1.4,0.1,2.1,0.2L16.701,16.05z M38.5,15.95l-0.199-1.1c0.3,0,0.5-0.1,0.8-0.1c0.5,0,1,0,1.5,0l-0.101,1.1
					c-0.399,0-0.899,0-1.299,0C38.9,15.95,38.701,15.95,38.5,15.95z"/>
			</g>
			<g>
				<path fill="#424142" d="M48.3,25.05c0,0,0-0.4-0.1-1l1.1-0.1c0.1,0.7,0.1,1.1,0.1,1.1H48.3z"/>
			</g>
		</g>
		<g>
			<polygon fill="#F2594B" points="51.701,26.551 50.3,25.15 48.9,26.551 47.5,25.15 46.1,26.551 47.5,27.95 46.1,29.35 47.5,30.75 
				48.9,29.35 50.3,30.75 51.701,29.35 50.3,27.95 			"/>
		</g>
		<g>
			<path fill="#32C8F6" d="M48.701,35.65C44,34.551,41,36.45,37.9,38.55c-3.1,2.2-6,2.7-10.3-1.199c-4.3-3.9-6.399-3.4-10.399-2.101
				s-4.201-1-8.601,0.2c-4.5,1.3-6.1,6.4-6.1,6.4v3.899h0.3l17-8.6l19.4,9.7L49,41.95"/>
		</g>
		<g>
			<polygon fill="#FFDD4B" points="52.9,8.95 54.1,6.85 55.3,7.55 			"/>
		</g>
		<g opacity="0.75">
			<polygon fill="#FFF6C5" points="19.6,0.75 19.8,39.95 39,49.15 38.9,10.45 			"/>
		</g>
		<g opacity="0.5">
			<polygon fill="#DED4AA" points="38.9,10.45 39,49.15 58.6,39.851 58.4,0.75 			"/>
		</g>
		<g opacity="0.5">
			<polygon fill="#DED4AA" points="0.2,10.45 0.3,49.15 19.8,39.851 19.6,0.75 			"/>
		</g>
		<g>
			<path fill="#424142" d="M0,49.851v-39.5l19.701-9.9l19.399,9.7l19.7-9.8v39.5l-0.1,0.1L39.1,49.75L39,49.65l-19.299-9.7L0,49.851
				z M19.701,39.351L19.701,39.351l19.399,9.8l19.2-9.601V1.25l-19.2,9.6l-19.399-9.8L0.5,10.65v38.3L19.701,39.351z"/>
		</g>
		<g>
			<path fill="#424142" d="M39.1,47.25L39.1,47.25l-19.399-9.8l-17.5,8.9v-34.7l17.5-8.8l19.399,9.7l17.5-8.8v34.601l-0.101,0.1
				L39.1,47.25z M19.701,36.95L19.701,36.95l19.399,9.8l17-8.5V4.75l-17,8.5l-19.399-9.7l-17,8.5v33.4L19.701,36.95z"/>
		</g>
		<g>
			<rect x="19.4" y="0.75" fill="#424142" width="0.5" height="38.9"/>
		</g>
		<g>
			<rect x="38.9" y="10.55" fill="#424142" width="0.5" height="38.9"/>
		</g>
		<g>
			<polygon fill="#424142" points="49.1,41.95 48.6,41.95 48.6,34.65 56.201,30.85 56.4,31.35 49.1,34.95 			"/>
		</g>
		<g>
			<g>
				<path fill="#424142" d="M2.9,21.25c-0.2,0-0.4,0-0.7,0l0.1-1.1c0.3,0,0.6,0,0.9,0l0.1,1.1C3.2,21.25,3,21.25,2.9,21.25z"/>
			</g>
			<g>
				<path fill="#424142" d="M30.5,35.551C30.1,35.45,29.701,35.45,29.3,35.25c-0.301-0.1-0.6-0.199-0.9-0.3l0.4-1
					c0.3,0.101,0.6,0.2,0.8,0.3c0.399,0.1,0.8,0.2,1.101,0.2L30.5,35.551z M32.3,35.551l-0.2-1.101
					c0.601-0.101,1.101-0.399,1.399-0.899l0.9,0.6C33.9,34.95,33.201,35.45,32.3,35.551z M26.8,34.25c-0.7-0.4-1.301-0.9-1.801-1.4
					L25.8,32.15c0.4,0.5,0.9,0.9,1.5,1.199L26.8,34.25z M35.201,32.65l-1-0.301c0.199-0.6,0.299-1.199,0.299-2L35.6,30.45
					C35.4,31.35,35.3,32.051,35.201,32.65z M24,31.45c-0.399-0.601-0.6-1.3-0.899-2.101l1-0.299c0.2,0.699,0.5,1.299,0.8,1.899
					L24,31.45z M35.6,28.85H34.5v-0.1c0-0.6,0-1.3,0-2H35.6C35.6,27.45,35.6,28.15,35.6,28.85L35.6,28.85z M22.701,27.75
					c-0.101-0.6-0.201-1.3-0.4-2.1l1.1-0.2c0.1,0.899,0.2,1.5,0.4,2.101L22.701,27.75z M34.4,25.05c0-0.7,0-1.4-0.1-2.2h1.1
					c0,0.7,0,1.4,0.1,2.1L34.4,25.05z M22.201,24.05c-0.101-0.7-0.201-1.4-0.301-2.1l1.1-0.2c0.101,0.7,0.201,1.5,0.301,2.1
					L22.201,24.05z M47.9,22.45c-0.199-0.7-0.4-1.3-0.699-1.9l1-0.5c0.299,0.6,0.6,1.4,0.799,2.1L47.9,22.45z M35.4,21.35l-1.1-0.1
					c0-0.8,0.1-1.6,0.3-2.2l1.101,0.2C35.6,19.85,35.5,20.55,35.4,21.35z M5.1,20.65l-0.5-1c0.6-0.3,1.1-0.7,1.7-1.2l0.7,0.8
					C6.4,19.85,5.8,20.35,5.1,20.65z M21.5,20.45c-0.199-0.7-0.5-1.3-0.799-1.8l0.899-0.6c0.399,0.6,0.7,1.3,0.899,2.1L21.5,20.45z
					 M46.4,19.25c-0.4-0.6-0.8-1.1-1.3-1.5l0.7-0.8c0.6,0.5,1.1,1,1.5,1.7L46.4,19.25z M8.2,18.35l-0.7-0.8c0.5-0.4,1.1-0.8,1.8-1.3
					l0.6,0.9C9.2,17.55,8.6,18.05,8.2,18.35z M36.1,17.85l-1-0.4c0.399-0.8,0.899-1.4,1.5-1.9l0.601,0.9
					C36.701,16.75,36.4,17.25,36.1,17.85z M19.8,17.55c-0.5-0.4-1-0.8-1.6-1l0.399-1c0.7,0.3,1.399,0.7,2,1.2L19.8,17.55z
					 M43.8,16.95c-0.6-0.3-1.2-0.5-1.9-0.7l0.301-1c0.799,0.2,1.5,0.5,2.1,0.8L43.8,16.95z M11.2,16.55l-0.4-1
					c0.7-0.3,1.401-0.5,2.2-0.6l0.201,1.1C12.5,16.05,11.9,16.25,11.2,16.55z M16.701,16.05c-0.601-0.1-1.201-0.2-1.9-0.2h-0.1v-1.1
					h0.1c0.699,0,1.4,0.1,2.1,0.2L16.701,16.05z M38.5,15.95l-0.199-1.1c0.3,0,0.5-0.1,0.8-0.1c0.5,0,1,0,1.5,0l-0.101,1.1
					c-0.399,0-0.899,0-1.299,0C38.9,15.95,38.701,15.95,38.5,15.95z"/>
			</g>
			<g>
				<path fill="#424142" d="M48.3,25.05c0,0,0-0.4-0.1-1l1.1-0.1c0.1,0.7,0.1,1.1,0.1,1.1H48.3z"/>
			</g>
		</g>
		<g>
			<path fill="#424142" d="M50.3,31.051l-1.4-1.4l-1.4,1.4l-1.799-1.801l1.399-1.4l-1.399-1.399l1.799-1.8l1.4,1.4l1.4-1.4l1.8,1.8
				l-1.399,1.399l1.399,1.4L50.3,31.051z M48.9,28.95l1.4,1.399l1-1l-1.4-1.399l1.4-1.399l-1-1l-1.4,1.399l-1.4-1.399l-1,1
				l1.4,1.399l-1.4,1.399l1,1L48.9,28.95z"/>
		</g>
		<g>
			<path fill="#424142" d="M2.7,42.05l-0.5-0.199c0.1-0.2,1.7-5.301,6.3-6.601c2.3-0.699,3.5-0.4,4.6-0.1c1.101,0.3,2.101,0.5,4-0.1
				c4-1.301,6.2-2,10.7,2.1c4.199,3.8,6.9,3.3,10,1.2c3.3-2.301,6.4-4.101,11.1-3.001l-0.1,0.501c-4.5-1.101-7.301,0.6-10.6,2.899
				C35,40.95,32,41.55,27.6,37.55c-4.3-3.899-6.2-3.3-10.2-1.999c-2.1,0.699-3.199,0.399-4.3,0.1c-1.101-0.301-2.2-0.5-4.4,0.1
				C4.4,36.95,2.7,41.95,2.7,42.05z"/>
		</g>
		<g>
			<path fill="#424142" d="M52.5,9.35l1.5-2.7l1.5,0.9L52.5,9.35z M54.1,7.05l-0.899,1.5l1.699-1L54.1,7.05z"/>
		</g>
	</g>
	<path fill="#424142" d="M69.4,31.85v-17H73v13.8h7.201v3.199H69.4z"/>
	<path fill="#424142" d="M81,25.65c0-3.5,2.4-6.4,6.5-6.4c4.101,0,6.5,2.9,6.5,6.4s-2.399,6.4-6.5,6.4C83.5,32.15,81,29.15,81,25.65
		z M90.6,25.65c0-1.9-1.101-3.6-3.101-3.6s-3.1,1.7-3.1,3.6s1.1,3.6,3.1,3.6S90.6,27.551,90.6,25.65z"/>
	<path fill="#424142" d="M95.3,30.25l1.4-2.3c0.899,0.8,2.699,1.7,4.199,1.7c1.4,0,2.1-0.6,2.1-1.301c0-2-7.299-0.399-7.299-5.199
		c0-2.1,1.799-3.9,5-3.9c2.1,0,3.699,0.7,5,1.7l-1.301,2.2c-0.699-0.8-2.1-1.4-3.6-1.4c-1.2,0-1.9,0.5-1.9,1.2
		c0,1.8,7.301,0.3,7.301,5.3c0,2.2-1.9,3.9-5.301,3.9C98.6,32.15,96.6,31.35,95.3,30.25z"/>
	<path fill="#424142" d="M109.3,28.75v-6.4h-2v-2.8h2v-3.4h3.199v3.4h2.5v2.8h-2.5v5.5c0,0.801,0.4,1.301,1.101,1.301
		c0.5,0,0.899-0.2,1.101-0.4l0.699,2.4c-0.5,0.4-1.3,0.8-2.699,0.8C110.5,32.15,109.3,30.95,109.3,28.75z"/>
	<path fill="#C1CC6C" d="M118.5,23.35c0-5.3,3.9-8.8,8.701-8.8c3,0,5.1,1.3,6.6,3.2l-1.7,1c-1.101-1.4-2.899-2.3-4.899-2.3
		c-3.701,0-6.5,2.8-6.5,6.9c0,4,2.799,6.9,6.5,6.9c2,0,3.699-1,4.5-1.8v-3.5H125.9v-1.9h7.9v6.1c-1.6,1.8-3.9,2.9-6.7,2.9
		C122.4,32.15,118.5,28.65,118.5,23.35z"/>
	<path fill="#C1CC6C" d="M136.5,31.85V19.55h1.9v2c1-1.3,2.4-2.2,4.1-2.2v2c-0.199-0.1-0.5-0.1-0.799-0.1c-1.201,0-2.801,1-3.301,2
		v8.7L136.5,31.85L136.5,31.85z"/>
	<path fill="#C1CC6C" d="M144.701,16.55c0-0.7,0.6-1.3,1.299-1.3c0.701,0,1.301,0.6,1.301,1.3c0,0.7-0.6,1.3-1.301,1.3
		C145.3,17.75,144.701,17.25,144.701,16.55z M145.1,31.85V19.55H147V31.85H145.1z"/>
	<path fill="#C1CC6C" d="M159.4,31.85v-1.799c-0.9,1.199-2.4,2.1-4.1,2.1c-3.2,0-5.5-2.4-5.5-6.4c0-3.9,2.199-6.4,5.5-6.4
		c1.6,0,3.1,0.8,4.1,2.2v-6.5h1.9v16.9L159.4,31.85L159.4,31.85z M159.4,28.45v-5.6c-0.699-1.1-2.199-2-3.699-2
		c-2.5,0-3.9,2-3.9,4.701c0,2.699,1.5,4.699,3.9,4.699C157.201,30.45,158.701,29.551,159.4,28.45z"/>
</g>
</svg>
